{"title":"Breakfast.with.Jonny.Wilkinson.2013.720p.WEB-DL.DD5.1.H264-FGT","uid":12584830,"size":3019848245,"categoryP":"video","categoryS":"hd___movies","magnet":"?xt=urn:btih:b8f3ccc313d25d3ea820fde9a14222844195ab11&amp;dn=Breakfast.with.Jonny.Wilkinson.2013.720p.WEB-DL.DD5.1.H264-FGT&amp;tr=udp%3A%2F%2Ftracker.leechers-paradise.org%3A6969&amp;tr=udp%3A%2F%2Fzer0day.ch%3A1337&amp;tr=udp%3A%2F%2Fopen.demonii.com%3A1337&amp;tr=udp%3A%2F%2Ftracker.coppersurfer.tk%3A6969&amp;tr=udp%3A%2F%2Fexodus.desync.com%3A6969","seeders":0,"leechers":0,"uploader":null,"files":3,"time":1444999102,"description":"Video\r\nID                                       : 1\r\nFormat                                   : AVC\r\nFormat/Info                              : Advanced Video Codec\r\nFormat profile                           :   \r\nFormat settings, CABAC                   : No\r\nFormat settings, ReFrames                : 2 frames\r\nCodec ID                                 : V_MPEG4/ISO/AVC\r\nDuration                                 : 1h 35mn\r\nBit rate                                 : 3 764 Kbps\r\nWidth                                    : 1 280 pixels\r\nHeight                                   : 542 pixels\r\nDisplay aspect ratio                     : 2.35:1\r\nFrame rate mode                          : Constant\r\nFrame rate                               : 24.000 fps\r\nColor space                              : YUV\r\nChroma subsampling                       : 4:2:0\r\nBit depth                                : 8 bits\r\nScan type                                : Progressive\r\nBits/(Pixel*Frame)                       : 0.226\r\nStream size                              : 2.50 GiB (89%)\r\nTitle                                    : Breakfast.with.Jonny.Wilkinson.2013.720p.WEB-DL.DD5.1.H264-FGT\r\nLanguage                                 : English\r\nDefault                                  : Yes\r\nForced                                   : No\r\nColor range                              : Limited\r\nColor primaries                          : BT.709\r\nTransfer characteristics                 : BT.709\r\nMatrix coefficients                      : BT.709\r\n\r\nAudio\r\nID                                       : 2\r\nFormat                                   : AC-3\r\nFormat/Info                              : Audio Coding 3\r\nMode extension                           : CM (complete main)\r\nFormat settings, Endianness              : Big\r\nCodec ID                                 : A_AC3\r\nDuration                                 : 1h 35mn\r\nBit rate mode                            : Constant\r\nBit rate                                 : 384 Kbps\r\nChannel(s)                               : 6 channels\r\nChannel positions                        : Front: L C R, Side: L R, LFE\r\nSampling rate                            : 48.0 KHz\r\nCompression mode                         : Lossy\r\nStream size                              : 261 MiB (9%)\r\nTitle                                    : Breakfast.with.Jonny.Wilkinson.2013.720p.WEB-DL.DD5.1.H264-FGT\r\nLanguage                                 : English\r\nDefault                                  : Yes\r\nForced                                   : No","torrent":{"xt":"urn:btih:b8f3ccc313d25d3ea820fde9a14222844195ab11","amp;dn":"Breakfast.with.Jonny.Wilkinson.2013.720p.WEB-DL.DD5.1.H264-FGT","amp;tr":["udp%3A%2F%2Ftracker.leechers-paradise.org%3A6969","udp%3A%2F%2Fzer0day.ch%3A1337","udp%3A%2F%2Fopen.demonii.com%3A1337","udp%3A%2F%2Ftracker.coppersurfer.tk%3A6969","udp%3A%2F%2Fexodus.desync.com%3A6969"],"infoHash":"b8f3ccc313d25d3ea820fde9a14222844195ab11","infoHashBuffer":{"type":"Buffer","data":[184,243,204,195,19,210,93,62,168,32,253,233,161,66,34,132,65,149,171,17]},"announce":[],"urlList":[]}}